# xmcd CD database file
#
# Track frame offsets:
#	150
#	20530
#	55829
#	89210
#	130423
#	162360
#	184436
#	211836
#
# Disc length: 3093 seconds
#
# Revision: 0
# Processed by: cddbd v1.5.2PL0 Copyright (c) Steve Scherf et al.
# Submitted via: CDex 1.51
#
DISCID=740c1308
DTITLE=Claudia Burson - My Foolish Heart
DYEAR=2004
DGENRE=Jazz
TTITLE0=Black Narcissus
TTITLE1=Softly as in a Morning Sunrise
TTITLE2=Little Sunflower
TTITLE3=My Foolish Heart
TTITLE4=East of the Sun
TTITLE5=Tres Orquideas
TTITLE6=Street of Dreams
TTITLE7=C-Jam Blues
EXTD=YEAR: 2004
EXTT0=
EXTT1=
EXTT2=
EXTT3=
EXTT4=
EXTT5=
EXTT6=
EXTT7=
PLAYORDER=
